<?xml version="1.0" standalone="no"?>
<!DOCTYPE svg PUBLIC "-//W3C//DTD SVG 1.1//EN" "http://www.w3.org/Graphics/SVG/1.1/DTD/svg11.dtd">
<svg xmlns="http://www.w3.org/2000/svg">
<defs >
<font id="InriaSans" horiz-adv-x="541" ><font-face
    font-family="Inria Sans Light"
    units-per-em="1000"
    panose-1="0 0 0 0 0 0 0 0 0 0"
    ascent="976"
    descent="-223"
    alphabetic="0" />
<glyph unicode=" " glyph-name="space" horiz-adv-x="230" />
<glyph unicode="!" glyph-name="exclam" horiz-adv-x="280" d="M165 172H115L110 410V680H170V410L165 172ZM176 0H104V73H176V0Z" />
<glyph unicode="&quot;" glyph-name="quotedbl" horiz-adv-x="332" d="M113 458H67L59 614V680H121V614L113 458ZM265 458H219L211 614V680H273V614L265 458Z" />
<glyph unicode="#" glyph-name="numbersign" horiz-adv-x="628" d="M301 0L365 202H177L113 0H57L121 202H17V254H137L191 426H87V478H207L271 680H327L263 478H451L515 680H571L507 478H611V426H491L437 254H541V202H421L357 0H301ZM193 254H381L435 426H247L193 254Z" />
<glyph unicode="$" glyph-name="dollar" horiz-adv-x="499" d="M454 178Q454 103 415 53T287 -8V-125H227V-10Q184 -8 136 3T41 36L62 91Q113 67 157 57T247 47Q314 47 351 78T388 170Q388 220 362 256T276 309L196 331Q117 353 82 399T47 510Q47 556 64 595T120
660T227 689V805H287V688Q322 684 360 674T435 646L413 590Q365 613 324 623T247 633Q183 633 148 605T113 515Q113 472 136 441T220 392L300 370Q377 349 415 300T454 178Z" />
<glyph unicode="%" glyph-name="percent" horiz-adv-x="779" d="M309 546V515Q309 448 273 412T177 375Q116 375 81 411T45 515V546Q45 613 80 649T177 685Q237 685 273 649T309 546ZM542 680H599L237 0H180L542 680ZM253 546Q253 590 233 612T177 634Q143 634
122 612T101 546V515Q101 472 122 450T177 427Q212 427 232 449T253 515V546ZM734 166V135Q734 68 698 32T602 -5Q541 -5 506 31T470 135V166Q470 233 505 269T602 305Q662 305 698 269T734 166ZM678 166Q678 210 658 232T602 254Q568 254 547 232T526 166V135Q526
92 547 70T602 47Q637 47 657 69T678 135V166Z" />
<glyph unicode="&amp;" glyph-name="ampersand" horiz-adv-x="560" d="M232 45Q286 45 320 71T363 141T343 236L392 266L560 0H490L410 129Q407 70 360 30T232 -10Q143 -10 95 37T46 163Q46 231 81 274T183 357Q87 446 87 539Q87 604 130 647T255 690Q329 690
372 651T416 537Q416 470 383 429T296 357L225 316Q164 281 137 247T109 163Q109 102 144 74T232 45ZM149 539Q149 507 166 470T230 385L268 408Q306 431 330 461T354 539Q354 591 327 614T256 637Q209 637 179 613T149 539Z" />
<glyph unicode="&apos;" glyph-name="quotesingle" horiz-adv-x="180" d="M113 458H67L59 614V680H121V614L113 458Z" />
<glyph unicode="(" glyph-name="parenleft" horiz-adv-x="304" d="M68 317Q68 441 114 551T261 750L300 708Q212 624 172 528T131 317V280Q131 165 171 69T300 -111L261 -153Q161 -64 115 46T68 280V317Z" />
<glyph unicode=")" glyph-name="parenright" horiz-adv-x="304" d="M236 280Q236 156 190 46T43 -153L4 -111Q92 -27 132 69T173 280V317Q173 432 133 528T4 708L43 750Q144 662 190 552T236 317V280Z" />
<glyph unicode="*" glyph-name="asterisk" horiz-adv-x="402" d="M336 358L287 322L275 338L201 466L127 338L115 322L66 358L78 374L176 484L32 515L13 522L31 579L50 572L186 513L171 660V680H231V660L216 513L352 572L371 579L389 522L370 515L226 484L324
374L336 358Z" />
<glyph unicode="+" glyph-name="plus" horiz-adv-x="588" d="M501 268H322V83H266V268H87V321H266V506H322V321H501V268Z" />
<glyph unicode="," glyph-name="comma" horiz-adv-x="180" d="M121 73V54Q121 -12 104 -71T44 -199L2 -175Q25 -131 37 -95T54 -19T59 73H121Z" />
<glyph unicode="-" glyph-name="hyphen" horiz-adv-x="384" d="M60 269V322H324V269H60Z" />
<glyph unicode="." glyph-name="period" horiz-adv-x="180" d="M126 0H54V73H126V0Z" />
<glyph unicode="/" glyph-name="slash" horiz-adv-x="344" d="M292 740H353L22 -143H-39L292 740Z" />
<glyph unicode="0" glyph-name="zero" horiz-adv-x="616" d="M532 417V264Q532 125 472 58T308 -10Q205 -10 145 57T84 264V417Q84 556 145 623T308 690Q410 690 471 623T532 417ZM466 417Q466 534 423 583T308 633Q238 633 194 584T150 417V264Q150 148 194 98T308
47Q379 47 422 97T466 264V417Z" />
<glyph unicode="1" glyph-name="one" horiz-adv-x="360" d="M25 588L180 680H245V0H182V615L54 540L25 588Z" />
<glyph unicode="2" glyph-name="two" horiz-adv-x="485" d="M425 0H52V47Q52 162 91 225T190 320L253 353Q287 371 312 389T350 431T364 493V510Q364 578 328 605T228 633Q194 633 154 625T69 597L47 649Q93 671 140 680T228 690Q332 690 379 643T427 510V493Q427
440 407 405T355 347T286 304L223 271Q168 242 143 190T115 57H425V0Z" />
<glyph unicode="3" glyph-name="three" horiz-adv-x="497" d="M424 173Q424 88 373 39T213 -10Q169 -10 121 0T25 32L45 84Q92 62 133 55T213 47Q280 47 319 76T358 173V190Q358 248 326 282T226 316H130V371H226Q291 371 321 404T351 493V507Q351 575 315 604T216
633Q181 633 143 625T60 597L38 649Q83 670 128 680T216 690Q319 690 368 641T417 507V493Q417 441 393 403T325 344Q371 324 397 285T424 190V173Z" />
<glyph unicode="4" glyph-name="four" horiz-adv-x="496" d="M465 170H388V0H328V170H36V216Q119 342 180 453T284 680H350Q305 566 247 458T106 226H328V364H388V226H465V170Z" />
<glyph unicode="5" glyph-name="five" horiz-adv-x="500" d="M70 356L90 680H421V623H147L134 398Q158 407 185 412T241 417Q331 417 387 368T444 222V190Q444 98 393 44T233 -10Q189 -10 141 0T45 32L65 84Q112 62 153 55T233 47Q300 47 339 79T378 190V222Q378
284 343 322T238 360Q204 360 174 352T111 328L70 356Z" />
<glyph unicode="6" glyph-name="six" horiz-adv-x="561" d="M505 186Q505 97 450 44T300 -10Q195 -10 141 61T86 265V418Q86 557 147 623T313 690Q350 690 394 682T485 651L463 599Q420 618 383 625T315 633Q238 633 193 585T147 418V345Q184 377 227 397T321
418Q408 418 456 365T505 223V186ZM147 265Q147 47 300 47Q368 47 406 84T444 186V223Q444 288 411 324T316 361Q269 361 226 340T147 283V265Z" />
<glyph unicode="7" glyph-name="seven" horiz-adv-x="474" d="M431 633Q352 474 297 316T216 0H151Q177 156 231 311T364 623H34V680H431V633Z" />
<glyph unicode="8" glyph-name="eight" horiz-adv-x="558" d="M488 175Q488 123 466 81T396 15T275 -10Q204 -10 159 14T92 77T70 166Q70 221 97 265T186 349Q138 374 112 414T86 513Q86 557 106 597T168 664T279 690Q346 690 388 666T451 603T472 514Q472 462
448 420T370 341Q428 316 458 278T488 175ZM261 383L318 362Q373 401 391 436T409 509Q409 566 377 600T279 635Q224 635 187 605T149 513Q149 466 173 436T261 383ZM133 172Q133 114 167 80T275 45Q346 45 385 77T425 170Q425 207 413 230T373 271T297 305L237
327Q175 286 154 249T133 172Z" />
<glyph unicode="9" glyph-name="nine" horiz-adv-x="561" d="M475 262Q475 123 414 57T248 -10Q211 -10 167 -2T76 29L98 81Q141 62 178 55T246 47Q323 47 368 95T414 262V335Q377 304 334 283T240 262Q153 262 105 315T56 457V494Q56 583 111 636T261 690Q366
690 420 619T475 415V262ZM117 457Q117 393 150 356T245 319Q292 319 335 341T414 397V415Q414 633 261 633Q194 633 156 596T117 494V457Z" />
<glyph unicode=":" glyph-name="colon" horiz-adv-x="180" d="M126 414H54V487H126V414ZM126 0H54V73H126V0Z" />
<glyph unicode=";" glyph-name="semicolon" horiz-adv-x="180" d="M126 414H54V487H126V414ZM121 73V54Q121 -12 104 -71T44 -199L2 -175Q25 -131 37 -95T54 -19T59 73H121Z" />
<glyph unicode="&lt;" glyph-name="less" horiz-adv-x="588" d="M501 170V106L87 274V311L501 476V416L178 294L501 170Z" />
<glyph unicode="=" glyph-name="equal" horiz-adv-x="588" d="M87 368V421H501V368H87ZM87 168V221H501V168H87Z" />
<glyph unicode="&gt;" glyph-name="greater" horiz-adv-x="588" d="M501 271L87 106V166L410 288L87 412V476L501 308V271Z" />
<glyph unicode="?" glyph-name="question" horiz-adv-x="422" d="M193 635Q158 635 118 627T32 596L10 649Q57 671 104 680T193 690Q289 690 336 643T384 526V509Q384 451 365 413T311 342L279 313Q246 283 235 260T223 198V172H163V197Q163 236 172 262T199 311T246
360L278 389Q298 408 309 436T321 509V526Q321 577 287 606T193 635ZM231 0H159V73H231V0Z" />
<glyph unicode="@" glyph-name="at" horiz-adv-x="954" d="M733 -167Q675 -193 607 -208T467 -223Q334 -223 242 -169T102 -20T54 202Q54 307 86 396T176 551T315 653T493 690Q583 690 657 659T785 572T868 442T898 283Q898 201 871 137T796 37T688 0Q639 0 609
21T572 87Q532 40 489 18T404 -5Q356 -5 325 22T282 97T278 204L287 265Q301 363 356 417T499 472Q546 472 590 457T678 412L633 155Q626 112 632 90T655 60T692 52Q731 52 764 80T817 161T837 283Q837 357 813 421T742 533T633 609T493 637Q410 637 341 605T221
514T143 376T115 202Q115 91 155 7T274 -123T467 -170Q530 -170 593 -156T709 -115L733 -167ZM341 204Q331 132 349 90T412 48Q446 48 489 75T577 172L613 385Q584 401 557 409T501 417Q433 417 397 377T350 265L341 204Z" />
<glyph unicode="A" glyph-name="A" horiz-adv-x="562" d="M474 0L416 175H141L84 0H22L248 680H313L540 0H474ZM203 363L160 233H396L353 363L278 595L203 363Z" />
<glyph unicode="B" glyph-name="B" horiz-adv-x="585" d="M115 0V680H310Q398 680 445 633T493 507V489Q493 441 471 406T406 351Q463 335 493 295T523 197V179Q523 98 474 49T335 0H115ZM310 621H180V375H310Q367 375 396 405T425 489V507Q425 560 396 590T310
621ZM335 316H180V59H335Q394 59 424 91T455 179V197Q455 252 425 284T335 316Z" />
<glyph unicode="C" glyph-name="C" horiz-adv-x="526" d="M152 263Q152 49 316 49Q351 49 385 57T464 86L487 31Q442 10 399 0T315 -10Q203 -10 144 61T84 263V417Q84 548 143 619T315 690Q356 690 401 680T487 649L465 594Q390 631 315 631Q152 631 152 417V263Z" />
<glyph unicode="D" glyph-name="D" horiz-adv-x="637" d="M115 0V680H313Q427 680 489 608T551 417V264Q551 144 489 72T313 0H115ZM313 621H180V59H313Q396 59 439 113T483 264V417Q483 513 440 567T313 621Z" />
<glyph unicode="E" glyph-name="E" horiz-adv-x="528" d="M485 59V0H115V680H475V621H180V374H445V315H180V59H485Z" />
<glyph unicode="F" glyph-name="F" horiz-adv-x="507" d="M439 304H180V0H115V680H469V621H180V363H439V304Z" />
<glyph unicode="G" glyph-name="G" horiz-adv-x="605" d="M531 50Q500 28 449 9T325 -10Q210 -10 148 65T86 264V417Q86 548 148 619T326 690Q372 690 422 680T518 649L496 594Q453 613 410 622T326 631Q154 631 154 417V264Q154 163 198 105T330 47Q412 47 470
83V286H333V345H531V50Z" />
<glyph unicode="H" glyph-name="H" horiz-adv-x="685" d="M505 0V315H180V0H115V680H180V374H505V680H570V0H505Z" />
<glyph unicode="I" glyph-name="I" horiz-adv-x="295" d="M180 0H115V680H180V0Z" />
<glyph unicode="J" glyph-name="J" horiz-adv-x="355" d="M28 -5V57Q110 57 148 91T186 212V680H251V212Q251 150 232 101T164 23T28 -5Z" />
<glyph unicode="K" glyph-name="K" horiz-adv-x="584" d="M493 0L282 337Q236 289 180 238V0H115V680H180V312Q286 410 354 499T471 680H540Q509 622 478 573T411 477T330 380L573 0H493Z" />
<glyph unicode="L" glyph-name="L" horiz-adv-x="506" d="M474 59V0H115V680H180V59H474Z" />
<glyph unicode="M" glyph-name="M" horiz-adv-x="829" d="M198 680L415 151L636 680H714V0H649V312L656 586L445 80H380L173 588L180 312V0H115V680H198Z" />
<glyph unicode="N" glyph-name="N" horiz-adv-x="695" d="M115 0V680H193Q258 582 314 488T423 295T524 90L515 388V680H580V0H502Q427 161 349 305T176 596L180 291V0H115Z" />
<glyph unicode="O" glyph-name="O" horiz-adv-x="652" d="M566 417V264Q566 181 538 120T457 24T326 -10Q211 -10 149 65T86 264V417Q86 500 114 561T196 656T326 690Q402 690 455 656T537 561T566 417ZM498 417Q498 518 454 574T326 631Q244 631 199 575T154
417V264Q154 164 199 107T326 49Q409 49 453 106T498 264V417Z" />
<glyph unicode="P" glyph-name="P" horiz-adv-x="558" d="M115 0V680H318Q410 680 460 630T511 497V444Q511 361 461 311T318 260H180V0H115ZM318 621H180V319H318Q380 319 411 352T443 444V497Q443 555 412 588T318 621Z" />
<glyph unicode="Q" glyph-name="Q" horiz-adv-x="652" d="M564 -108V-173Q480 -173 430 -143T350 -40L338 -10H326Q211 -10 149 65T86 264V417Q86 500 114 561T196 656T326 690Q402 690 455 656T537 561T566 417V264Q566 161 523 92T400 0L404 -9Q422 -50 440
-71T488 -99T564 -108ZM498 417Q498 518 454 574T326 631Q244 631 199 575T154 417V264Q154 164 199 107T326 49Q409 49 453 106T498 264V417Z" />
<glyph unicode="R" glyph-name="R" horiz-adv-x="597" d="M180 278V0H115V680H318Q410 680 460 632T511 501V458Q511 397 482 353T398 290Q442 221 480 148T552 0H476Q446 72 410 141T333 278H180ZM318 621H180V337H318Q374 337 408 369T443 458V501Q443 558 409
589T318 621Z" />
<glyph unicode="S" glyph-name="S" horiz-adv-x="499" d="M247 47Q314 47 351 78T388 170Q388 220 362 256T276 309L196 331Q117 353 82 399T47 510Q47 558 66 599T128 665T247 690Q290 690 338 680T435 646L413 590Q365 613 324 623T247 633Q183 633 148 605T113
515Q113 472 136 441T220 392L300 370Q377 349 415 300T454 178Q454 95 406 43T247 -10Q200 -10 147 1T41 36L62 91Q113 67 157 57T247 47Z" />
<glyph unicode="T" glyph-name="T" horiz-adv-x="499" d="M13 621V680H486V621H282V0H217V621H13Z" />
<glyph unicode="U" glyph-name="U" horiz-adv-x="650" d="M102 680H170V244Q170 153 207 101T325 49Q406 49 443 101T480 244V680H548V244Q548 123 493 57T325 -10Q213 -10 158 56T102 244V680Z" />
<glyph unicode="V" glyph-name="V" horiz-adv-x="550" d="M526 680L308 0H243L24 680H90L201 334L278 90L355 334L464 680H526Z" />
<glyph unicode="W" glyph-name="W" horiz-adv-x="856" d="M172 380L227 95L398 680H461L633 93L688 380L752 680H813L666 0H600L429 587L256 0H189L43 680H108L172 380Z" />
<glyph unicode="X" glyph-name="X" horiz-adv-x="534" d="M437 0L263 295L91 0H24L229 349L34 680H107L271 402L433 680H500L305 347L510 0H437Z" />
<glyph unicode="Y" glyph-name="Y" horiz-adv-x="512" d="M289 270V0H224V270L16 680H86L259 337L429 680H496L289 270Z" />
<glyph unicode="Z" glyph-name="Z" horiz-adv-x="508" d="M468 59V0H43V47L380 621H53V680H458V633L121 59H468Z" />
<glyph unicode="[" glyph-name="bracketleft" horiz-adv-x="344" d="M340 -90V-143H115V740H340V687H175V-90H340Z" />
<glyph unicode="\" glyph-name="backslash" horiz-adv-x="344" d="M52 740L383 -143H322L-9 740H52Z" />
<glyph unicode="]" glyph-name="bracketright" horiz-adv-x="344" d="M229 740V-143H4V-90H169V687H4V740H229Z" />
<glyph unicode="^" glyph-name="asciicircum" horiz-adv-x="588" d="M415 266L291 589L169 266H109L274 680H311L479 266H415Z" />
<glyph unicode="_" glyph-name="underscore" horiz-adv-x="374" d="M5 -153V-100H369V-153H5Z" />
<glyph unicode="`" glyph-name="grave" horiz-adv-x="500" d="M224 579L130 716L189 745L275 579H224Z" />
<glyph unicode="a" glyph-name="a" horiz-adv-x="484" d="M442 -5Q401 -5 374 15T342 70Q288 22 247 6T170 -10Q106 -10 76 31T45 131Q45 170 59 201T108 250T201 269Q228 269 264 266T334 256V328Q334 393 309 417T231 442Q195 442 160 433T87 405L66 454Q107
475 147 486T231 497Q298 497 332 476T380 418T393 338V112Q393 84 402 67T440 50H452V-5H442ZM107 131Q107 91 125 67T179 43Q207 43 244 61T334 126V203Q299 209 263 212T202 216Q152 216 130 196T107 131Z" />
<glyph unicode="b" glyph-name="b" horiz-adv-x="548" d="M477 213Q477 111 426 51T277 -10Q184 -10 92 39V740H152V420Q196 461 236 479T319 497Q396 497 436 439T477 273V213ZM307 440Q275 440 241 425T152 359V73Q214 45 274 45Q349 45 381 90T414 213V273Q414
359 388 399T307 440Z" />
<glyph unicode="c" glyph-name="c" horiz-adv-x="451" d="M133 274V214Q133 132 164 89T263 45Q295 45 328 53T395 78L415 29Q339 -10 258 -10Q165 -10 118 49T70 214V274Q70 379 117 438T258 497Q293 497 332 488T406 461L386 411Q356 425 325 433T263 442Q195
442 164 399T133 274Z" />
<glyph unicode="d" glyph-name="d" horiz-adv-x="551" d="M399 0V69Q354 28 313 9T229 -10Q153 -10 112 49T71 214V274Q71 376 122 436T271 497Q303 497 334 491T396 472V740H456V0H399ZM134 214Q134 128 160 88T241 47Q273 47 307 63T396 128V414Q334 442 274
442Q199 442 167 397T134 274V214Z" />
<glyph unicode="e" glyph-name="e" horiz-adv-x="493" d="M437 29Q396 8 352 -1T271 -10Q169 -10 120 49T70 214V274Q70 375 120 436T264 497Q338 497 388 453T439 320Q439 279 427 226H131V214Q131 132 164 89T271 45Q301 45 340 53T417 78L437 29ZM264 442Q197
442 164 399T131 279H376Q378 292 379 303T380 325Q380 387 346 414T264 442Z" />
<glyph unicode="f" glyph-name="f" horiz-adv-x="332" d="M333 434H168V0H108V434H19V487H108V589Q108 629 121 665T167 726T255 750Q281 750 310 744T369 724L349 675Q299 697 257 697Q215 697 192 671T168 590V487H333V434Z" />
<glyph unicode="g" glyph-name="g" horiz-adv-x="514" d="M474 -70Q474 -139 417 -181T262 -223Q210 -223 156 -208T52 -160L76 -114Q127 -146 173 -157T263 -169Q334 -169 373 -144T413 -75Q413 -44 392 -27T321 -10H210Q149 -10 122 18T95 81Q95 131 142 184Q107
204 86 240T65 328Q65 385 88 422T152 478T242 497H259Q291 497 317 487H491V432L379 445Q403 426 419 398T435 328Q435 273 411 236T348 179T259 159H242Q211 159 186 166Q168 146 160 128T152 93Q152 49 215 49H320Q394 49 434 19T474 -70ZM259 214Q304 214 338
242T372 328Q372 386 338 414T259 442H242Q196 442 162 414T128 328Q128 270 162 242T242 214H259Z" />
<glyph unicode="h" glyph-name="h" horiz-adv-x="563" d="M326 440Q295 440 255 425T155 361V0H95V740H155V420Q211 467 254 482T336 497Q403 497 438 456T473 338V0H413V327Q413 386 392 413T326 440Z" />
<glyph unicode="i" glyph-name="i" horiz-adv-x="250" d="M161 626H89V699H161V626ZM155 0H95V487H155V0Z" />
<glyph unicode="j" glyph-name="j" horiz-adv-x="250" d="M161 626H88V699H161V626ZM-18 -223V-166Q19 -166 44 -156T82 -117T95 -37V487H155V-37Q155 -124 118 -173T-18 -223Z" />
<glyph unicode="k" glyph-name="k" horiz-adv-x="493" d="M401 0L252 241Q230 219 206 197T155 151V0H95V740H155V220Q226 285 282 349T385 487H453Q416 428 379 380T295 281L474 0H401Z" />
<glyph unicode="l" glyph-name="l" horiz-adv-x="256" d="M95 105V740H155V112Q155 78 164 64T202 50H218V-5H199Q145 -5 120 22T95 105Z" />
<glyph unicode="m" glyph-name="m" horiz-adv-x="861" d="M321 440Q291 440 253 425T155 361V0H95V487H152V417Q208 464 250 480T331 497Q424 497 452 413Q511 463 555 480T639 497Q704 497 737 456T771 338V0H711V327Q711 386 691 413T629 440Q599 440 560 425T462
361Q463 356 463 350T463 338V0H403V327Q403 386 383 413T321 440Z" />
<glyph unicode="n" glyph-name="n" horiz-adv-x="563" d="M326 440Q295 440 255 425T155 361V0H95V487H152V417Q210 465 254 481T336 497Q403 497 438 456T473 338V0H413V327Q413 386 392 413T326 440Z" />
<glyph unicode="o" glyph-name="o" horiz-adv-x="540" d="M472 274V214Q472 108 419 49T270 -10Q173 -10 121 49T68 214V274Q68 376 120 436T270 497Q367 497 419 437T472 274ZM409 274Q409 354 373 398T270 442Q203 442 167 398T131 274V214Q131 131 167 88T270
45Q337 45 373 88T409 214V274Z" />
<glyph unicode="p" glyph-name="p" horiz-adv-x="551" d="M280 -10Q249 -10 218 -4T155 15V-213H95V487H152V418Q197 459 238 478T322 497Q399 497 439 439T480 273V213Q480 111 429 51T280 -10ZM310 440Q278 440 244 425T155 359V73Q217 45 277 45Q352 45 384
90T417 213V273Q417 359 391 399T310 440Z" />
<glyph unicode="q" glyph-name="q" horiz-adv-x="549" d="M456 448V-213H396V67Q353 27 312 9T229 -10Q153 -10 112 49T71 214V274Q71 376 122 436T271 497Q364 497 456 448ZM134 214Q134 128 160 88T241 47Q273 47 307 63T396 128V414Q334 442 274 442Q199 442
167 397T134 274V214Z" />
<glyph unicode="r" glyph-name="r" horiz-adv-x="354" d="M337 437Q295 437 253 421T155 350V0H95V487H152V406Q203 459 247 478T337 497V437Z" />
<glyph unicode="s" glyph-name="s" horiz-adv-x="415" d="M201 45Q262 45 286 65T311 125Q311 158 292 179T219 213L165 226Q108 240 79 275T49 362Q49 397 64 427T114 477T206 497Q243 497 281 489T356 462L336 411Q266 442 206 442Q159 442 134 423T108 366Q108
337 126 314T195 279L250 266Q370 238 370 128Q370 90 355 59T304 9T206 -10Q164 -10 123 -1T39 27L55 78Q95 62 128 54T201 45Z" />
<glyph unicode="t" glyph-name="t" horiz-adv-x="369" d="M344 19Q289 -10 233 -10Q183 -10 155 10T116 65T105 137V434H16V487H105V629H165V487H330V434H165V142Q165 86 182 65T240 43Q278 43 323 67L344 19Z" />
<glyph unicode="u" glyph-name="u" horiz-adv-x="553" d="M401 0V70Q345 23 303 7T222 -10Q158 -10 124 31T90 149V487H150V160Q150 102 170 75T232 47Q262 47 300 62T398 126V487H458V0H401Z" />
<glyph unicode="v" glyph-name="v" horiz-adv-x="454" d="M429 487L257 0H200L25 487H88L169 254L230 73L290 254L370 487H429Z" />
<glyph unicode="w" glyph-name="w" horiz-adv-x="703" d="M669 487L544 0H469L352 421L233 0H158L34 487H96L147 276L198 64L319 487H388L507 62L558 276L608 487H669Z" />
<glyph unicode="x" glyph-name="x" horiz-adv-x="445" d="M352 0L219 208L89 0H25L188 254L38 487H106L226 300L343 487H407L257 254L420 0H352Z" />
<glyph unicode="y" glyph-name="y" horiz-adv-x="455" d="M240 -50Q209 -139 165 -181T43 -223V-166Q76 -166 99 -158T144 -122T190 -30L201 -2L25 487H88L169 254L230 71L290 254L370 487H430L240 -50Z" />
<glyph unicode="z" glyph-name="z" horiz-adv-x="399" d="M367 53V0H35V48L287 434H45V487H357V439L105 53H367Z" />
<glyph unicode="{" glyph-name="braceleft" horiz-adv-x="375" d="M371 -91V-144H282Q194 -144 161 -94T144 41L164 147Q175 203 163 237T94 272H21V325H94Q150 325 162 359T164 449L144 555Q128 640 161 690T282 740H371V687H286Q228 687 211 654T202 574L222
468Q235 399 220 356T163 298Q204 283 219 241T222 128L202 22Q193 -25 210 -58T286 -91H371Z" />
<glyph unicode="|" glyph-name="bar" horiz-adv-x="290" d="M115 740H175V-213H115V740Z" />
<glyph unicode="}" glyph-name="braceright" horiz-adv-x="375" d="M231 41Q247 -44 215 -94T93 -144H4V-91H89Q147 -91 164 -58T173 22L153 128Q140 197 156 240T212 298Q172 313 156 355T153 468L173 574Q182 621 165 654T89 687H4V740H93Q182 740 214 690T231
555L211 449Q201 394 213 359T281 324H354V271H281Q225 271 213 237T211 147L231 41Z" />
<glyph unicode="~" glyph-name="asciitilde" horiz-adv-x="588" d="M387 208Q356 208 334 219T296 248T265 283T236 312T199 324Q175 324 158 302T127 223L77 236Q94 315 126 346T200 377Q231 377 253 366T291 337T322 302T351 273T388 261Q413 261 430 284T461
363L511 350Q493 271 461 240T387 208Z" />
<glyph unicode="&#xa0;" glyph-name="uni00A0" horiz-adv-x="230" />
<glyph unicode="&#xa1;" glyph-name="exclamdown" horiz-adv-x="280" d="M104 487H176V414H104V487ZM115 315H165L170 77V-193H110V77L115 315Z" />
<glyph unicode="&#xa2;" glyph-name="cent" horiz-adv-x="451" d="M415 29Q355 -2 290 -8V-125H230V-8Q151 0 111 58T70 214V274Q70 371 110 429T230 495V612H290V495Q319 492 348 484T406 461L386 411Q356 425 325 433T263 442Q195 442 164 399T133 274V214Q133
132 164 89T263 45Q295 45 328 53T395 78L415 29Z" />
<glyph unicode="&#xa3;" glyph-name="sterling" horiz-adv-x="486" d="M460 0H75V46Q112 90 133 121T162 176T171 224Q171 254 160 285H67V344H136Q117 385 100 428T82 521Q82 568 101 606T162 667T272 690Q313 690 358 680T448 649L426 592Q382 613 345 622T272
631Q214 631 182 605T150 520Q150 469 169 427T206 344H391V285H228Q231 272 233 259T235 232Q235 189 216 148T159 59H460V0Z" />
<glyph unicode="&#xa4;" glyph-name="currency" horiz-adv-x="588" d="M548 75L510 35L408 139Q359 103 294 103Q229 103 179 139L78 35L40 75L140 179Q122 203 112 234T102 300Q102 335 112 366T140 422L40 525L78 565L179 461Q229 497 294 497Q359 497 409 461L510
565L548 525L448 421Q466 397 476 366T486 300Q486 265 476 235T448 179L548 75ZM294 155Q353 155 391 195T429 300Q429 364 391 404T294 445Q235 445 197 405T159 300Q159 236 197 196T294 155Z" />
<glyph unicode="&#xa5;" glyph-name="yen" horiz-adv-x="546" d="M499 174H306V0H241V174H48V230H241V270L202 346H48V402H174L33 680H103L276 337L446 680H513L373 402H499V346H344L306 270V230H499V174Z" />
<glyph unicode="&#xa6;" glyph-name="brokenbar" horiz-adv-x="284" d="M112 740H172V357H112V740ZM112 170H172V-213H112V170Z" />
<glyph unicode="&#xa7;" glyph-name="section" horiz-adv-x="502" d="M442 -59Q442 -129 393 -176T239 -223Q141 -223 44 -177L65 -121Q112 -143 154 -154T239 -166Q304 -166 340 -141T376 -67Q376 -26 351 4T271 50L196 73Q119 97 83 139T47 239Q47 286 72 326T139
388Q107 412 92 446T77 523Q77 568 95 606T155 667T265 690Q305 690 349 681T438 652L417 597Q373 617 336 625T265 633Q207 633 175 609T143 528Q143 490 161 461T230 418L306 396Q460 352 460 226Q460 180 436 141T370 78Q442 29 442 -59ZM295 112Q302 110 308
108T322 103Q394 144 394 217Q394 261 367 289T282 334L206 356Q201 358 196 359T186 363Q151 343 132 314T113 244Q113 204 136 179T220 135L295 112Z" />
<glyph unicode="&#xa8;" glyph-name="dieresis" horiz-adv-x="500" d="M191 627H120V698H191V627ZM380 627H309V698H380V627Z" />
<glyph unicode="&#xa9;" glyph-name="copyright" horiz-adv-x="844" d="M422 -37Q341 -37 273 -9T155 70T78 189T50 340Q50 422 77 490T155 610T273 689T422 717Q502 717 570 689T688 610T766 491T794 340Q794 258 766 190T688 70T570 -9T422 -37ZM422 13Q514
13 585 55T697 170T738 340Q738 435 697 509T585 625T422 667Q331 667 260 625T147 509T106 340Q106 244 147 171T259 55T422 13ZM311 361V320Q311 250 338 214T426 178Q482 178 543 207L563 158Q495 123 421 123Q336 123 292 175T248 320V361Q248 453 292 505T421
557Q453 557 488 550T554 525L534 476Q477 502 426 502Q366 502 339 466T311 361Z" />
<glyph unicode="&#xaa;" glyph-name="ordfeminine" horiz-adv-x="341" d="M306 338Q278 338 258 350T231 382Q198 355 173 345T124 335Q78 335 56 363T33 432Q33 472 57 499T149 527Q181 527 226 519V568Q226 606 209 620T157 635Q133 635 110 629T62 610L43 655Q72
669 100 677T158 685Q208 685 234 669T269 628T279 575V423Q279 408 284 399T304 390H313V338H306ZM88 432Q88 410 99 396T132 382Q148 382 171 392T226 427V475Q204 479 184 480T150 482Q116 482 102 470T88 432Z" />
<glyph unicode="&#xab;" glyph-name="guillemotleft" horiz-adv-x="638" d="M312 87V14L36 229V266L312 478V409L101 249L312 87ZM582 87V14L306 229V266L582 478V409L371 249L582 87Z" />
<glyph unicode="&#xac;" glyph-name="logicalnot" horiz-adv-x="588" d="M87 378V431H501V197H445V378H87Z" />
<glyph unicode="&#xad;" glyph-name="uni00AD" horiz-adv-x="0" />
<glyph unicode="&#xae;" glyph-name="registered" horiz-adv-x="554" d="M277 241Q210 241 157 272T74 357T43 479Q43 548 73 601T157 686T277 717Q344 717 397 686T480 602T511 479Q511 411 481 357T397 272T277 241ZM277 284Q331 284 373 309T440 379T464 479Q464
536 440 580T374 649T277 674Q223 674 181 649T115 580T90 479Q90 423 114 379T181 310T277 284ZM200 353V608H282Q320 608 341 588T362 535V518Q362 471 325 452Q355 403 377 353H326Q307 400 281 443H245V353H200ZM282 566H245V486H282Q315 486 315 518V535Q315
566 282 566Z" />
<glyph unicode="&#xaf;" glyph-name="overscore" horiz-adv-x="500" d="M387 659V609H113V659H387Z" />
<glyph unicode="&#xb0;" glyph-name="degree" horiz-adv-x="374" d="M187 366Q117 366 74 411T30 528Q30 600 73 645T187 690Q256 690 300 645T344 528Q344 481 324 444T269 387T187 366ZM187 418Q233 418 261 448T289 528Q289 578 261 608T187 638Q141 638 113
608T85 528Q85 478 113 448T187 418Z" />
<glyph unicode="&#xb1;" glyph-name="plusminus" horiz-adv-x="588" d="M501 308H322V123H266V308H87V361H266V546H322V361H501V308ZM87 0V53H501V0H87Z" />
<glyph unicode="&#xb2;" glyph-name="uni00B2" horiz-adv-x="271" d="M239 445H26V469Q26 528 47 557T108 608L140 625Q161 636 173 648T185 683V692Q185 739 126 739Q107 739 84 735T35 719L24 770Q50 780 75 785T127 790Q186 790 213 764T240 692V683Q240 638
215 616T156 577L125 561Q106 551 96 537T82 497H239V445Z" />
<glyph unicode="&#xb3;" glyph-name="uni00B3" horiz-adv-x="274" d="M230 536Q230 492 202 466T115 440Q92 440 67 445T19 461L34 510Q56 499 76 496T114 492Q143 492 158 502T174 536V544Q174 566 159 579T109 592H71V642H109Q171 642 171 688V695Q171 718 156
728T115 739Q99 739 82 736T42 721L25 770Q48 781 71 785T117 790Q173 790 200 765T227 696V689Q227 664 217 646T182 617Q230 597 230 544V536Z" />
<glyph unicode="&#xb4;" glyph-name="acute" horiz-adv-x="500" d="M276 579H225L311 745L370 716L276 579Z" />
<glyph unicode="&#xb5;" glyph-name="uni00B5" horiz-adv-x="562" d="M155 -213H95V487H155V160Q155 102 175 75T237 47Q267 47 305 62T403 126V487H463V112Q463 84 472 67T510 50H522V-5H512Q472 -5 443 15T408 71Q351 23 309 7T232 -10Q177 -10 145 23L155 -125V-213Z" />
<glyph unicode="&#xb6;" glyph-name="paragraph" horiz-adv-x="558" d="M47 497Q47 580 97 630T240 680H533V621H443V-143H378V621H307V260H240Q148 260 98 310T47 444V497Z" />
<glyph unicode="&#xb7;" glyph-name="middot" horiz-adv-x="500" d="M286 348H214V421H286V348Z" />
<glyph unicode="&#xb8;" glyph-name="cedilla" horiz-adv-x="500" d="M340 -138Q340 -178 311 -200T235 -223Q196 -223 160 -208L170 -162Q202 -174 233 -174Q265 -174 275 -164T286 -138Q286 -124 275 -114T232 -104Q228 -104 223 -104T212 -106L189 -64L201
0H249L238 -58H242Q286 -58 313 -79T340 -138Z" />
<glyph unicode="&#xb9;" glyph-name="uni00B9" horiz-adv-x="224" d="M25 734L112 785H166V445H112V728L49 691L25 734Z" />
<glyph unicode="&#xba;" glyph-name="ordmasculine" horiz-adv-x="352" d="M320 531V489Q320 416 282 376T176 335Q107 335 70 375T32 489V531Q32 602 69 643T176 685Q245 685 282 644T320 531ZM265 531Q265 581 242 608T176 635Q133 635 110 608T87 531V489Q87
437 110 411T176 385Q219 385 242 411T265 489V531Z" />
<glyph unicode="&#xbb;" glyph-name="guillemotright" horiz-adv-x="638" d="M602 226L326 14V83L537 243L326 405V478L602 263V226ZM332 226L56 14V83L267 243L56 405V478L332 263V226Z" />
<glyph unicode="&#xbc;" glyph-name="onequarter" horiz-adv-x="584" d="M25 629L112 680H166V340H112V623L49 586L25 629ZM447 680H504L142 0H85L447 680ZM579 85H540V0H490V85H342V118Q383 180 414 232T466 340H522Q502 288 474 239T409 133H490V182H540V133H579V85Z" />
<glyph unicode="&#xbd;" glyph-name="onehalf" horiz-adv-x="636" d="M25 629L112 680H166V340H112V623L49 586L25 629ZM447 680H504L142 0H85L447 680ZM604 0H391V24Q391 83 412 112T473 163L505 180Q526 191 538 203T550 238V247Q550 294 491 294Q472 294 449
290T400 274L389 325Q415 335 440 340T492 345Q551 345 578 319T605 247V238Q605 193 580 171T521 132L490 116Q471 106 461 92T447 52H604V0Z" />
<glyph unicode="&#xbe;" glyph-name="threequarters" horiz-adv-x="619" d="M230 431Q230 387 202 361T115 335Q92 335 67 340T19 356L34 405Q56 394 76 391T114 387Q143 387 158 397T174 431V439Q174 461 159 474T109 487H71V537H109Q171 537 171 583V590Q171
613 156 623T115 634Q99 634 82 631T42 616L25 665Q48 676 71 680T117 685Q173 685 200 660T227 591V584Q227 559 217 541T182 512Q230 492 230 439V431ZM482 680H539L177 0H120L482 680ZM614 85H575V0H525V85H377V118Q418 180 449 232T501 340H557Q537 288 509
239T444 133H525V182H575V133H614V85Z" />
<glyph unicode="&#xbf;" glyph-name="questiondown" horiz-adv-x="422" d="M204 487H276V414H204V487ZM242 -148Q277 -148 317 -140T403 -109L425 -162Q379 -184 332 -193T242 -203Q146 -203 99 -156T51 -39V-22Q51 36 70 75T124 145L156 174Q189 204 200 228T212
289V315H272V290Q272 251 263 225T236 176T189 127L157 98Q137 79 126 51T114 -22V-39Q114 -90 148 -119T242 -148Z" />
<glyph unicode="&#xc0;" glyph-name="Agrave" horiz-adv-x="562" d="M474 0L416 175H141L84 0H22L248 680H313L540 0H474ZM203 363L160 233H396L353 363L278 595L203 363ZM255 772L161 909L220 938L306 772H255Z" />
<glyph unicode="&#xc1;" glyph-name="Aacute" horiz-adv-x="562" d="M474 0L416 175H141L84 0H22L248 680H313L540 0H474ZM203 363L160 233H396L353 363L278 595L203 363ZM307 772H256L342 938L401 909L307 772Z" />
<glyph unicode="&#xc2;" glyph-name="Acircumflex" horiz-adv-x="562" d="M474 0L416 175H141L84 0H22L248 680H313L540 0H474ZM203 363L160 233H396L353 363L278 595L203 363ZM351 772L280 878L208 772H159L250 933H313L404 772H351Z" />
<glyph unicode="&#xc3;" glyph-name="Atilde" horiz-adv-x="562" d="M474 0L416 175H141L84 0H22L248 680H313L540 0H474ZM203 363L160 233H396L353 363L278 595L203 363ZM342 781Q316 781 299 794T269 826T245 857T219 871Q208 871 199 856T190 796H139Q141 865
163 894T220 923Q246 923 263 910T293 878T317 847T343 833Q354 833 363 848T372 908H423Q422 839 400 810T342 781Z" />
<glyph unicode="&#xc4;" glyph-name="Adieresis" horiz-adv-x="562" d="M474 0L416 175H141L84 0H22L248 680H313L540 0H474ZM203 363L160 233H396L353 363L278 595L203 363ZM222 820H151V891H222V820ZM411 820H340V891H411V820Z" />
<glyph unicode="&#xc5;" glyph-name="Aring" horiz-adv-x="562" d="M141 175L84 0H22L235 640Q205 651 188 677T171 737V748Q171 795 201 823T281 852Q331 852 361 824T391 748V737Q391 703 374 677T326 640L540 0H474L416 175H141ZM339 748Q339 774 323 789T281
805Q255 805 239 790T223 748V737Q223 712 239 696T281 680Q307 680 323 695T339 737V748ZM203 363L160 233H396L353 363L278 595L203 363Z" />
<glyph unicode="&#xc6;" glyph-name="AE" horiz-adv-x="828" d="M5 0L389 680H775V621H480V374H745V315H480V59H785V0H415V175H172L74 0H5ZM204 233H415V610L204 233Z" />
<glyph unicode="&#xc7;" glyph-name="Ccedilla" horiz-adv-x="526" d="M415 -138Q415 -178 386 -200T310 -223Q271 -223 235 -208L245 -162Q277 -174 308 -174Q340 -174 350 -164T361 -138Q361 -124 350 -114T307 -104Q303 -104 298 -104T287 -106L264 -64L275
-7Q182 5 133 74T84 263V417Q84 548 143 619T315 690Q356 690 401 680T487 649L465 594Q390 631 315 631Q152 631 152 417V263Q152 49 316 49Q351 49 385 57T464 86L487 31Q444 11 403 1T322 -10L313 -58H317Q361 -58 388 -79T415 -138Z" />
<glyph unicode="&#xc8;" glyph-name="Egrave" horiz-adv-x="528" d="M485 59V0H115V680H475V621H180V374H445V315H180V59H485ZM268 772L174 909L233 938L319 772H268Z" />
<glyph unicode="&#xc9;" glyph-name="Eacute" horiz-adv-x="528" d="M485 59V0H115V680H475V621H180V374H445V315H180V59H485ZM320 772H269L355 938L414 909L320 772Z" />
<glyph unicode="&#xca;" glyph-name="Ecircumflex" horiz-adv-x="528" d="M485 59V0H115V680H475V621H180V374H445V315H180V59H485ZM364 772L293 878L221 772H172L263 933H326L417 772H364Z" />
<glyph unicode="&#xcb;" glyph-name="Edieresis" horiz-adv-x="528" d="M485 59V0H115V680H475V621H180V374H445V315H180V59H485ZM235 820H164V891H235V820ZM424 820H353V891H424V820Z" />
<glyph unicode="&#xcc;" glyph-name="Igrave" horiz-adv-x="295" d="M180 0H115V680H180V0ZM122 772L28 909L87 938L173 772H122Z" />
<glyph unicode="&#xcd;" glyph-name="Iacute" horiz-adv-x="295" d="M180 0H115V680H180V0ZM174 772H123L209 938L268 909L174 772Z" />
<glyph unicode="&#xce;" glyph-name="Icircumflex" horiz-adv-x="295" d="M180 0H115V680H180V0ZM217 772L146 878L74 772H25L116 933H179L270 772H217Z" />
<glyph unicode="&#xcf;" glyph-name="Idieresis" horiz-adv-x="295" d="M180 0H115V680H180V0ZM88 820H17V891H88V820ZM277 820H206V891H277V820Z" />
<glyph unicode="&#xd0;" glyph-name="Eth" horiz-adv-x="647" d="M35 374H125V680H323Q437 680 499 608T561 417V264Q561 144 499 72T323 0H125V315H35V374ZM339 315H190V59H323Q406 59 449 113T493 264V417Q493 513 450 567T323 621H190V374H339V315Z" />
<glyph unicode="&#xd1;" glyph-name="Ntilde" horiz-adv-x="695" d="M115 0V680H193Q258 582 314 488T423 295T524 90L515 388V680H580V0H502Q427 161 349 305T176 596L180 291V0H115ZM409 781Q383 781 366 794T336 826T312 857T286 871Q275 871 266 856T257 796H206Q208
865 230 894T287 923Q313 923 330 910T360 878T384 847T410 833Q421 833 430 848T439 908H490Q489 839 467 810T409 781Z" />
<glyph unicode="&#xd2;" glyph-name="Ograve" horiz-adv-x="652" d="M566 417V264Q566 181 538 120T457 24T326 -10Q211 -10 149 65T86 264V417Q86 500 114 561T196 656T326 690Q402 690 455 656T537 561T566 417ZM498 417Q498 518 454 574T326 631Q244 631 199
575T154 417V264Q154 164 199 107T326 49Q409 49 453 106T498 264V417ZM300 772L206 909L265 938L351 772H300Z" />
<glyph unicode="&#xd3;" glyph-name="Oacute" horiz-adv-x="652" d="M566 417V264Q566 181 538 120T457 24T326 -10Q211 -10 149 65T86 264V417Q86 500 114 561T196 656T326 690Q402 690 455 656T537 561T566 417ZM498 417Q498 518 454 574T326 631Q244 631 199
575T154 417V264Q154 164 199 107T326 49Q409 49 453 106T498 264V417ZM352 772H301L387 938L446 909L352 772Z" />
<glyph unicode="&#xd4;" glyph-name="Ocircumflex" horiz-adv-x="652" d="M566 417V264Q566 181 538 120T457 24T326 -10Q211 -10 149 65T86 264V417Q86 500 114 561T196 656T326 690Q402 690 455 656T537 561T566 417ZM498 417Q498 518 454 574T326 631Q244 631
199 575T154 417V264Q154 164 199 107T326 49Q409 49 453 106T498 264V417ZM396 772L325 878L253 772H204L295 933H358L449 772H396Z" />
<glyph unicode="&#xd5;" glyph-name="Otilde" horiz-adv-x="652" d="M566 417V264Q566 181 538 120T457 24T326 -10Q211 -10 149 65T86 264V417Q86 500 114 561T196 656T326 690Q402 690 455 656T537 561T566 417ZM498 417Q498 518 454 574T326 631Q244 631 199
575T154 417V264Q154 164 199 107T326 49Q409 49 453 106T498 264V417ZM387 781Q361 781 344 794T314 826T290 857T264 871Q253 871 244 856T235 796H184Q186 865 208 894T265 923Q291 923 308 910T338 878T362 847T388 833Q399 833 408 848T417 908H468Q467 839
445 810T387 781Z" />
<glyph unicode="&#xd6;" glyph-name="Odieresis" horiz-adv-x="652" d="M566 417V264Q566 181 538 120T457 24T326 -10Q211 -10 149 65T86 264V417Q86 500 114 561T196 656T326 690Q402 690 455 656T537 561T566 417ZM498 417Q498 518 454 574T326 631Q244 631
199 575T154 417V264Q154 164 199 107T326 49Q409 49 453 106T498 264V417ZM267 820H196V891H267V820ZM456 820H385V891H456V820Z" />
<glyph unicode="&#xd7;" glyph-name="multiply" horiz-adv-x="588" d="M487 139L449 102L294 257L139 102L101 139L256 295L101 451L139 489L294 333L449 489L487 451L332 295L487 139Z" />
<glyph unicode="&#xd8;" glyph-name="Oslash" horiz-adv-x="652" d="M326 -10Q240 -10 183 33L147 -30H86L143 71Q86 143 86 264V417Q86 500 114 561T196 656T326 690Q411 690 469 647L505 710H566L509 609Q566 535 566 417V264Q566 181 538 120T457 24T326 -10ZM154
264Q154 188 180 136L438 591Q395 631 326 631Q244 631 199 575T154 417V264ZM498 417Q498 493 472 545L214 89Q259 49 326 49Q409 49 453 106T498 264V417Z" />
<glyph unicode="&#xd9;" glyph-name="Ugrave" horiz-adv-x="650" d="M102 680H170V244Q170 153 207 101T325 49Q406 49 443 101T480 244V680H548V244Q548 123 493 57T325 -10Q213 -10 158 56T102 244V680ZM299 772L205 909L264 938L350 772H299Z" />
<glyph unicode="&#xda;" glyph-name="Uacute" horiz-adv-x="650" d="M102 680H170V244Q170 153 207 101T325 49Q406 49 443 101T480 244V680H548V244Q548 123 493 57T325 -10Q213 -10 158 56T102 244V680ZM351 772H300L386 938L445 909L351 772Z" />
<glyph unicode="&#xdb;" glyph-name="Ucircumflex" horiz-adv-x="650" d="M102 680H170V244Q170 153 207 101T325 49Q406 49 443 101T480 244V680H548V244Q548 123 493 57T325 -10Q213 -10 158 56T102 244V680ZM395 772L324 878L252 772H203L294 933H357L448 772H395Z" />
<glyph unicode="&#xdc;" glyph-name="Udieresis" horiz-adv-x="650" d="M102 680H170V244Q170 153 207 101T325 49Q406 49 443 101T480 244V680H548V244Q548 123 493 57T325 -10Q213 -10 158 56T102 244V680ZM266 820H195V891H266V820ZM455 820H384V891H455V820Z" />
<glyph unicode="&#xdd;" glyph-name="Yacute" horiz-adv-x="512" d="M289 270V0H224V270L16 680H86L259 337L429 680H496L289 270ZM282 772H231L317 938L376 909L282 772Z" />
<glyph unicode="&#xde;" glyph-name="Thorn" horiz-adv-x="558" d="M318 135H180V0H115V680H180V555H318Q410 555 460 505T511 372V319Q511 236 461 186T318 135ZM318 496H180V194H318Q380 194 411 227T443 319V372Q443 430 412 463T318 496Z" />
<glyph unicode="&#xdf;" glyph-name="germandbls" horiz-adv-x="594" d="M562 130Q562 93 546 61T496 10T406 -10Q338 -10 262 25L280 77Q347 45 404 45Q453 45 477 67T502 126Q502 155 489 178T442 225L386 263Q348 289 332 317T315 382Q315 415 326 443T352
497T378 550T389 608Q389 650 358 673T279 697Q221 697 195 668T168 576V0H108V434H19V487H108V575Q108 618 122 658T174 724T277 750Q325 750 364 735T426 689T449 608Q449 572 438 543T412 489T386 440T375 388Q375 368 383 350T416 316L473 278Q523 244 542
207T562 130Z" />
<glyph unicode="&#xe0;" glyph-name="agrave" horiz-adv-x="484" d="M442 -5Q401 -5 374 15T342 70Q288 22 247 6T170 -10Q106 -10 76 31T45 131Q45 170 59 201T108 250T201 269Q228 269 264 266T334 256V328Q334 393 309 417T231 442Q195 442 160 433T87 405L66
454Q107 475 147 486T231 497Q298 497 332 476T380 418T393 338V112Q393 84 402 67T440 50H452V-5H442ZM107 131Q107 91 125 67T179 43Q207 43 244 61T334 126V203Q299 209 263 212T202 216Q152 216 130 196T107 131ZM452 579L358 716L417 745L503 579H452Z" />
<glyph unicode="&#xe1;" glyph-name="aacute" horiz-adv-x="484" d="M442 -5Q401 -5 374 15T342 70Q288 22 247 6T170 -10Q106 -10 76 31T45 131Q45 170 59 201T108 250T201 269Q228 269 264 266T334 256V328Q334 393 309 417T231 442Q195 442 160 433T87 405L66
454Q107 475 147 486T231 497Q298 497 332 476T380 418T393 338V112Q393 84 402 67T440 50H452V-5H442ZM107 131Q107 91 125 67T179 43Q207 43 244 61T334 126V203Q299 209 263 212T202 216Q152 216 130 196T107 131ZM504 579H453L539 745L598 716L504 579Z" />
<glyph unicode="&#xe2;" glyph-name="acircumflex" horiz-adv-x="484" d="M442 -5Q401 -5 374 15T342 70Q288 22 247 6T170 -10Q106 -10 76 31T45 131Q45 170 59 201T108 250T201 269Q228 269 264 266T334 256V328Q334 393 309 417T231 442Q195 442 160 433T87
405L66 454Q107 475 147 486T231 497Q298 497 332 476T380 418T393 338V112Q393 84 402 67T440 50H452V-5H442ZM107 131Q107 91 125 67T179 43Q207 43 244 61T334 126V203Q299 209 263 212T202 216Q152 216 130 196T107 131ZM548 579L477 685L405 579H356L447 740H510L601
579H548Z" />
<glyph unicode="&#xe3;" glyph-name="atilde" horiz-adv-x="484" d="M442 -5Q401 -5 374 15T342 70Q288 22 247 6T170 -10Q106 -10 76 31T45 131Q45 170 59 201T108 250T201 269Q228 269 264 266T334 256V328Q334 393 309 417T231 442Q195 442 160 433T87 405L66
454Q107 475 147 486T231 497Q298 497 332 476T380 418T393 338V112Q393 84 402 67T440 50H452V-5H442ZM107 131Q107 91 125 67T179 43Q207 43 244 61T334 126V203Q299 209 263 212T202 216Q152 216 130 196T107 131ZM539 588Q513 588 496 601T466 633T442 664T416
678Q405 678 396 663T387 603H336Q338 672 360 701T417 730Q443 730 460 717T490 685T514 654T540 640Q551 640 560 655T569 715H620Q619 646 597 617T539 588Z" />
<glyph unicode="&#xe4;" glyph-name="adieresis" horiz-adv-x="484" d="M442 -5Q401 -5 374 15T342 70Q288 22 247 6T170 -10Q106 -10 76 31T45 131Q45 170 59 201T108 250T201 269Q228 269 264 266T334 256V328Q334 393 309 417T231 442Q195 442 160 433T87 405L66
454Q107 475 147 486T231 497Q298 497 332 476T380 418T393 338V112Q393 84 402 67T440 50H452V-5H442ZM107 131Q107 91 125 67T179 43Q207 43 244 61T334 126V203Q299 209 263 212T202 216Q152 216 130 196T107 131ZM419 627H348V698H419V627ZM608 627H537V698H608V627Z"
/>
<glyph unicode="&#xe5;" glyph-name="aring" horiz-adv-x="484" d="M442 -5Q401 -5 374 15T342 70Q288 22 247 6T170 -10Q106 -10 76 31T45 131Q45 170 59 201T108 250T201 269Q228 269 264 266T334 256V328Q334 393 309 417T231 442Q195 442 160 433T87 405L66
454Q107 475 147 486T231 497Q298 497 332 476T380 418T393 338V112Q393 84 402 67T440 50H452V-5H442ZM107 131Q107 91 125 67T179 43Q207 43 244 61T334 126V203Q299 209 263 212T202 216Q152 216 130 196T107 131ZM588 679V668Q588 622 558 593T478 563Q428
563 398 592T368 668V679Q368 726 398 754T478 783Q528 783 558 755T588 679ZM536 679Q536 705 520 720T478 736Q452 736 436 721T420 679V668Q420 643 436 627T478 611Q504 611 520 626T536 668V679Z" />
<glyph unicode="&#xe6;" glyph-name="ae" horiz-adv-x="757" d="M701 29Q660 8 616 -1T535 -10Q472 -10 429 13T362 80Q301 27 255 9T172 -10Q107 -10 76 31T45 131Q45 170 59 201T108 250T201 269Q228 269 264 266T334 256V328Q334 393 309 417T231 442Q195 442
160 433T87 405L66 454Q107 475 147 486T231 497Q296 497 330 477T379 422Q402 458 438 477T528 497Q602 497 652 453T703 320Q703 279 691 226H395V214Q395 132 428 89T535 45Q565 45 604 53T681 78L701 29ZM528 442Q461 442 428 399T395 279H640Q642 292 643
303T644 325Q644 387 610 414T528 442ZM108 131Q108 91 126 67T179 43Q206 43 247 61T343 131Q336 164 334 203Q299 209 263 212T202 216Q153 216 131 196T108 131Z" />
<glyph unicode="&#xe7;" glyph-name="ccedilla" horiz-adv-x="451" d="M353 -138Q353 -178 324 -200T248 -223Q209 -223 173 -208L183 -162Q215 -174 246 -174Q278 -174 288 -164T299 -138Q299 -124 288 -114T245 -104Q241 -104 236 -104T225 -106L202 -64L213
-6Q143 8 107 65T70 214V274Q70 379 117 438T258 497Q293 497 332 488T406 461L386 411Q356 425 325 433T263 442Q195 442 164 399T133 274V214Q133 132 164 89T263 45Q295 45 328 53T395 78L415 29Q378 10 338 0T260 -10L251 -58H255Q299 -58 326 -79T353 -138Z"
/>
<glyph unicode="&#xe8;" glyph-name="egrave" horiz-adv-x="493" d="M437 29Q396 8 352 -1T271 -10Q169 -10 120 49T70 214V274Q70 375 120 436T264 497Q338 497 388 453T439 320Q439 279 427 226H131V214Q131 132 164 89T271 45Q301 45 340 53T417 78L437 29ZM264
442Q197 442 164 399T131 279H376Q378 292 379 303T380 325Q380 387 346 414T264 442ZM238 579L144 716L203 745L289 579H238Z" />
<glyph unicode="&#xe9;" glyph-name="eacute" horiz-adv-x="493" d="M437 29Q396 8 352 -1T271 -10Q169 -10 120 49T70 214V274Q70 375 120 436T264 497Q338 497 388 453T439 320Q439 279 427 226H131V214Q131 132 164 89T271 45Q301 45 340 53T417 78L437 29ZM264
442Q197 442 164 399T131 279H376Q378 292 379 303T380 325Q380 387 346 414T264 442ZM290 579H239L325 745L384 716L290 579Z" />
<glyph unicode="&#xea;" glyph-name="ecircumflex" horiz-adv-x="493" d="M437 29Q396 8 352 -1T271 -10Q169 -10 120 49T70 214V274Q70 375 120 436T264 497Q338 497 388 453T439 320Q439 279 427 226H131V214Q131 132 164 89T271 45Q301 45 340 53T417 78L437
29ZM264 442Q197 442 164 399T131 279H376Q378 292 379 303T380 325Q380 387 346 414T264 442ZM333 579L262 685L190 579H141L232 740H295L386 579H333Z" />
<glyph unicode="&#xeb;" glyph-name="edieresis" horiz-adv-x="493" d="M437 29Q396 8 352 -1T271 -10Q169 -10 120 49T70 214V274Q70 375 120 436T264 497Q338 497 388 453T439 320Q439 279 427 226H131V214Q131 132 164 89T271 45Q301 45 340 53T417 78L437
29ZM264 442Q197 442 164 399T131 279H376Q378 292 379 303T380 325Q380 387 346 414T264 442ZM204 627H133V698H204V627ZM393 627H322V698H393V627Z" />
<glyph unicode="&#xec;" glyph-name="igrave" horiz-adv-x="250" d="M155 0H95V487H155V0ZM356 579L262 716L321 745L407 579H356Z" />
<glyph unicode="&#xed;" glyph-name="iacute" horiz-adv-x="250" d="M155 0H95V487H155V0ZM408 579H357L443 745L502 716L408 579Z" />
<glyph unicode="&#xee;" glyph-name="icircumflex" horiz-adv-x="250" d="M155 0H95V487H155V0ZM451 579L380 685L308 579H259L350 740H413L504 579H451Z" />
<glyph unicode="&#xef;" glyph-name="idieresis" horiz-adv-x="250" d="M155 0H95V487H155V0ZM322 627H251V698H322V627ZM511 627H440V698H511V627Z" />
<glyph unicode="&#xf0;" glyph-name="eth" horiz-adv-x="540" d="M474 251Q474 121 419 56T265 -10Q168 -10 116 44T63 199V239Q63 334 114 390T255 447Q299 447 333 433T399 395Q387 447 362 494T294 586L171 496V559L257 622Q233 643 205 664T145 704L170 750Q208
728 241 704T302 655L431 750V687L339 619Q410 544 442 462T474 291V251ZM126 199Q126 123 162 84T265 45Q335 45 373 94T411 251V291Q411 300 411 308T410 325Q367 360 331 376T258 392Q197 392 162 352T126 239V199Z" />
<glyph unicode="&#xf1;" glyph-name="ntilde" horiz-adv-x="563" d="M326 440Q295 440 255 425T155 361V0H95V487H152V417Q210 465 254 481T336 497Q403 497 438 456T473 338V0H413V327Q413 386 392 413T326 440ZM346 588Q320 588 303 601T273 633T249 664T223
678Q212 678 203 663T194 603H143Q145 672 167 701T224 730Q250 730 267 717T297 685T321 654T347 640Q358 640 367 655T376 715H427Q426 646 404 617T346 588Z" />
<glyph unicode="&#xf2;" glyph-name="ograve" horiz-adv-x="540" d="M472 274V214Q472 108 419 49T270 -10Q173 -10 121 49T68 214V274Q68 376 120 436T270 497Q367 497 419 437T472 274ZM409 274Q409 354 373 398T270 442Q203 442 167 398T131 274V214Q131 131
167 88T270 45Q337 45 373 88T409 214V274ZM244 579L150 716L209 745L295 579H244Z" />
<glyph unicode="&#xf3;" glyph-name="oacute" horiz-adv-x="540" d="M472 274V214Q472 108 419 49T270 -10Q173 -10 121 49T68 214V274Q68 376 120 436T270 497Q367 497 419 437T472 274ZM409 274Q409 354 373 398T270 442Q203 442 167 398T131 274V214Q131 131
167 88T270 45Q337 45 373 88T409 214V274ZM296 579H245L331 745L390 716L296 579Z" />
<glyph unicode="&#xf4;" glyph-name="ocircumflex" horiz-adv-x="540" d="M472 274V214Q472 108 419 49T270 -10Q173 -10 121 49T68 214V274Q68 376 120 436T270 497Q367 497 419 437T472 274ZM409 274Q409 354 373 398T270 442Q203 442 167 398T131 274V214Q131
131 167 88T270 45Q337 45 373 88T409 214V274ZM340 579L269 685L197 579H148L239 740H302L393 579H340Z" />
<glyph unicode="&#xf5;" glyph-name="otilde" horiz-adv-x="540" d="M472 274V214Q472 108 419 49T270 -10Q173 -10 121 49T68 214V274Q68 376 120 436T270 497Q367 497 419 437T472 274ZM409 274Q409 354 373 398T270 442Q203 442 167 398T131 274V214Q131 131
167 88T270 45Q337 45 373 88T409 214V274ZM331 588Q305 588 288 601T258 633T234 664T208 678Q197 678 188 663T179 603H128Q130 672 152 701T209 730Q235 730 252 717T282 685T306 654T332 640Q343 640 352 655T361 715H412Q411 646 389 617T331 588Z" />
<glyph unicode="&#xf6;" glyph-name="odieresis" horiz-adv-x="540" d="M472 274V214Q472 108 419 49T270 -10Q173 -10 121 49T68 214V274Q68 376 120 436T270 497Q367 497 419 437T472 274ZM409 274Q409 354 373 398T270 442Q203 442 167 398T131 274V214Q131
131 167 88T270 45Q337 45 373 88T409 214V274ZM211 627H140V698H211V627ZM400 627H329V698H400V627Z" />
<glyph unicode="&#xf7;" glyph-name="divide" horiz-adv-x="588" d="M331 462H258V535H331V462ZM87 268V321H501V268H87ZM331 50H258V123H331V50Z" />
<glyph unicode="&#xf8;" glyph-name="oslash" horiz-adv-x="540" d="M270 -10Q203 -10 157 19L126 -30H68L119 51Q68 110 68 214V274Q68 376 120 436T270 497Q336 497 383 468L414 517H472L420 435Q472 377 472 274V214Q472 108 419 49T270 -10ZM131 214Q131 148
154 107L351 418Q320 442 270 442Q203 442 167 398T131 274V214ZM409 274Q409 340 385 380L188 68Q222 45 270 45Q337 45 373 88T409 214V274Z" />
<glyph unicode="&#xf9;" glyph-name="ugrave" horiz-adv-x="553" d="M401 0V70Q345 23 303 7T222 -10Q158 -10 124 31T90 149V487H150V160Q150 102 170 75T232 47Q262 47 300 62T398 126V487H458V0H401ZM248 579L154 716L213 745L299 579H248Z" />
<glyph unicode="&#xfa;" glyph-name="uacute" horiz-adv-x="553" d="M401 0V70Q345 23 303 7T222 -10Q158 -10 124 31T90 149V487H150V160Q150 102 170 75T232 47Q262 47 300 62T398 126V487H458V0H401ZM300 579H249L335 745L394 716L300 579Z" />
<glyph unicode="&#xfb;" glyph-name="ucircumflex" horiz-adv-x="553" d="M401 0V70Q345 23 303 7T222 -10Q158 -10 124 31T90 149V487H150V160Q150 102 170 75T232 47Q262 47 300 62T398 126V487H458V0H401ZM344 579L273 685L201 579H152L243 740H306L397 579H344Z" />
<glyph unicode="&#xfc;" glyph-name="udieresis" horiz-adv-x="553" d="M401 0V70Q345 23 303 7T222 -10Q158 -10 124 31T90 149V487H150V160Q150 102 170 75T232 47Q262 47 300 62T398 126V487H458V0H401ZM215 627H144V698H215V627ZM404 627H333V698H404V627Z" />
<glyph unicode="&#xfd;" glyph-name="yacute" horiz-adv-x="455" d="M240 -50Q209 -139 165 -181T43 -223V-166Q76 -166 99 -158T144 -122T190 -30L201 -2L25 487H88L169 254L230 71L290 254L370 487H430L240 -50ZM510 579H459L545 745L604 716L510 579Z" />
<glyph unicode="&#xfe;" glyph-name="thorn" horiz-adv-x="551" d="M280 -10Q249 -10 218 -4T155 15V-213H95V740H155V420Q199 461 239 479T322 497Q399 497 439 439T480 273V213Q480 111 429 51T280 -10ZM310 440Q278 440 244 425T155 359V73Q217 45 277 45Q352
45 384 90T417 213V273Q417 359 391 399T310 440Z" />
<glyph unicode="&#xff;" glyph-name="ydieresis" horiz-adv-x="455" d="M240 -50Q209 -139 165 -181T43 -223V-166Q76 -166 99 -158T144 -122T190 -30L201 -2L25 487H88L169 254L230 71L290 254L370 487H430L240 -50ZM424 627H353V698H424V627ZM613 627H542V698H613V627Z" />
<glyph unicode="&#x2013;" glyph-name="endash" horiz-adv-x="584" d="M60 269V322H524V269H60Z" />
<glyph unicode="&#x2014;" glyph-name="emdash" horiz-adv-x="784" d="M60 269V322H724V269H60Z" />
<glyph unicode="&#x2018;" glyph-name="quoteleft" horiz-adv-x="180" d="M41 458V477Q41 533 57 583T103 690L146 670Q130 634 121 603T107 539T103 458H41Z" />
<glyph unicode="&#x2019;" glyph-name="quoteright" horiz-adv-x="180" d="M139 680V661Q139 606 123 555T77 448L34 468Q50 505 59 535T73 600T77 680H139Z" />
<glyph unicode="&#x201a;" glyph-name="quotesinglbase" horiz-adv-x="180" d="M121 73V54Q121 -1 105 -52T59 -159L16 -139Q32 -102 41 -72T55 -7T59 73H121Z" />
<glyph unicode="&#x201c;" glyph-name="quotedblleft" horiz-adv-x="330" d="M191 458V477Q191 533 207 583T253 690L296 670Q280 634 271 603T257 539T253 458H191ZM41 458V477Q41 533 57 583T103 690L146 670Q130 634 121 603T107 539T103 458H41Z" />
<glyph unicode="&#x201d;" glyph-name="quotedblright" horiz-adv-x="330" d="M139 680V661Q139 606 123 555T77 448L34 468Q50 505 59 535T73 600T77 680H139ZM289 680V661Q289 606 273 555T227 448L184 468Q200 505 209 535T223 600T227 680H289Z" />
<glyph unicode="&#x201e;" glyph-name="quotedblbase" horiz-adv-x="330" d="M121 73V54Q121 -1 105 -52T59 -159L16 -139Q32 -102 41 -72T55 -7T59 73H121ZM271 73V54Q271 -1 255 -52T209 -159L166 -139Q182 -102 191 -72T205 -7T209 73H271Z" />
<glyph unicode="&#x2022;" glyph-name="bullet" horiz-adv-x="244" d="M178 277H66V390H178V277Z" />
<glyph unicode="&#x2039;" glyph-name="guilsinglleft" horiz-adv-x="368" d="M312 87V14L36 229V266L312 478V409L101 249L312 87Z" />
<glyph unicode="&#x203a;" glyph-name="guilsinglright" horiz-adv-x="368" d="M332 226L56 14V83L267 243L56 405V478L332 263V226Z" />
</font>
</defs>
</svg>
